Coordinates
version=1
nRows=8
nColumns=36
inDegrees=yes

Units are S.I. units (second, meters, Newtons, ...)
If the header above contains a line with 'inDegrees', this indicates whether rotational values are in degrees (yes) or radians (no).

endheader
time	pelvis_tilt	pelvis_list	pelvis_rotation	pelvis_tx	pelvis_ty	pelvis_tz	hip_flexion_r	hip_adduction_r	hip_rotation_r	knee_angle_r	knee_angle_r_beta	ankle_angle_r	subtalar_angle_r	mtp_angle_r	hip_flexion_l	hip_adduction_l	hip_rotation_l	knee_angle_l	knee_angle_l_beta	ankle_angle_l	subtalar_angle_l	mtp_angle_l	lumbar_extension	lumbar_bending	lumbar_rotation	arm_flex_r	arm_add_r	arm_rot_r	elbow_flex_r	pro_sup_r	arm_flex_l	arm_add_l	arm_rot_l	elbow_flex_l	pro_sup_l
      4.45000000	    -17.49786438	      3.21723998	    -10.48023199	      0.54925602	      0.65955353	      0.03434197	     65.07992271	     -8.50532476	     -0.83257528	     91.83443903	      1.60281333	     47.31198643	     -3.48347661	     -7.49999987	     66.78338262	     -5.67263783	      0.22831287	     94.38914679	      1.64740139	     37.91776579	    -13.86311016	     -7.49999987	    -12.50508311	     -0.51865324	      5.70527153	     59.59342176	     -8.98221761	     65.77710897	    126.38420126	     82.56772822	     53.91136545	      1.04176308	     65.71131291	    122.96031585	     89.54239291
      4.46666670	    -17.81201199	      3.38680027	    -10.71407481	      0.54857695	      0.64809588	      0.03538266	     66.71919952	     -8.37433760	     -0.32901338	     93.90462632	      1.63894491	     47.47358544	     -3.97870858	     -7.49999987	     68.09104123	     -5.73221958	      0.37948820	     96.17465342	      1.67856436	     38.75040774	    -13.66599882	     -7.49999987	    -12.41362581	     -0.70083333	      5.99666004	     59.97675399	     -8.63617480	     65.36666513	    126.75955577	     80.06433270	     53.83322435	      1.09780099	     65.78417436	    123.74723296	     86.60615534
      4.48333330	    -18.24616882	      3.60901516	    -10.88352955	      0.54782137	      0.64357622	      0.03484993	     68.27681129	     -8.28304300	      0.10576539	     95.61122020	      1.66873059	     47.61011867	     -4.37267112	     -7.49999987	     69.40884768	     -5.65023132	      0.56318839	     97.71491165	      1.70544694	     39.43476017	    -13.54947796	     -7.49999987	    -12.16053684	     -0.88290690	      5.97318460	     59.96221152	     -8.21909919	     66.49210209	    126.57947445	     78.54896018	     53.78309444	      1.15863960	     65.60691043	    123.33206940	     83.96721596
      4.50000000	    -18.34581981	      3.80422459	    -11.08942667	      0.54710767	      0.64099404	      0.03554427	     69.15760313	     -8.15474851	      0.50888441	     96.79556123	      1.68940124	     47.66862169	     -4.57602694	     -7.49999987	     70.03380653	     -5.60795703	      0.63855572	     98.80632601	      1.72449571	     40.50445805	    -12.87560900	     -7.49999987	    -12.33974838	     -1.11139580	      5.91899701	     59.38264472	     -7.74098918	     66.97621226	    125.93495511	     83.33875040	     53.53190658	      1.01649321	     65.02872013	    123.26540361	     91.73014336
      4.51666670	    -18.38548723	      3.93689452	    -11.34897250	      0.54641253	      0.63443506	      0.03542847	     69.90030697	     -7.98437937	      0.85063193	     97.79657314	      1.70687220	     47.63867461	     -4.70500411	     -7.49999987	     70.53576106	     -5.63295456	      0.73272828	     99.74479285	      1.74087505	     41.03800077	    -12.65845016	     -7.49999987	    -12.38680654	     -1.29707538	      6.08786636	     59.67336906	     -7.53688360	     67.29269210	    126.24376256	     84.11551075	     53.79356770	      1.12671897	     65.07598100	    123.39612229	     91.94505833
      4.53333330	    -18.31892319	      4.01684446	    -11.56179299	      0.54581887	      0.62949826	      0.03578359	     70.38501588	     -7.87237426	      1.14938816	     98.66726921	      1.72206871	     47.51933411	     -5.16815247	     -7.49999987	     70.76211828	     -5.52538761	      0.90878321	    100.41615415	      1.75259251	     41.42585964	    -12.94734691	     -7.49999987	    -12.40793046	     -1.42292502	      6.27942033	     59.89716606	     -7.42637118	     67.82376870	    126.10792524	     82.16107192	     53.71965934	      0.88679603	     65.51257283	    123.38300279	     89.02995612
      4.55000000	    -18.40355925	      4.20517062	    -11.83151836	      0.54509411	      0.62856753	      0.03556205	     70.83559883	     -7.78264236	      1.45489848	     99.15353225	      1.73055560	     47.55171697	     -4.88540726	     -7.49999987	     70.91342151	     -5.47094591	      0.96250687	    100.77018601	      1.75877153	     42.25509148	    -11.96784856	     -7.49999987	    -12.31233473	     -1.68621214	      6.30150858	     60.11428584	     -7.38277649	     67.99446593	    126.24168092	     80.50716237	     54.04910298	      0.84996165	     65.62813394	    123.34780895	     86.23343691
      4.56666670	    -18.25153085	      4.25180485	    -12.11754843	      0.54486450	      0.62935568	      0.03605758	     70.76918337	     -7.66875286	      1.59848069	     99.22954356	      1.73188225	     47.41487742	     -4.88343233	     -7.49999987	     70.61092410	     -5.40536863	      1.07736892	    100.71204603	      1.75775680	     42.71113475	    -11.49655048	     -7.49999987	    -12.64645809	     -1.79492914	      6.59370608	     60.15151110	     -7.65258275	     67.98708435	    125.77082087	     78.62520182	     53.69929156	      0.45634224	     65.97724292	    123.37176067	     83.63922093
